<mxfile host="app.diagrams.net" modified="2023-08-04T23:35:47.926Z" agent="Mozilla/5.0 (Windows NT 10.0; Win64; x64) AppleWebKit/537.36 (KHTML, like Gecko) Chrome/115.0.0.0 Safari/537.36" etag="Nd18ZhE_QUabzDahee1D" version="21.6.6" type="github">
  <diagram name="Page-1" id="13e1069c-82ec-6db2-03f1-153e76fe0fe0">
    <mxGraphModel dx="1195" dy="652" grid="1" gridSize="10" guides="1" tooltips="1" connect="1" arrows="1" fold="1" page="1" pageScale="1" pageWidth="1100" pageHeight="850" background="none" math="0" shadow="0">
      <root>
        <mxCell id="0" />
        <mxCell id="1" parent="0" />
        <mxCell id="7baba1c4bc27f4b0-2" value="Sistema" style="shape=umlLifeline;perimeter=lifelinePerimeter;whiteSpace=wrap;html=1;container=1;collapsible=0;recursiveResize=0;outlineConnect=0;rounded=1;shadow=0;comic=0;labelBackgroundColor=none;strokeWidth=1;fontFamily=Verdana;fontSize=12;align=center;" parent="1" vertex="1">
          <mxGeometry x="250" y="80" width="145" height="400" as="geometry" />
        </mxCell>
        <mxCell id="7baba1c4bc27f4b0-10" value="" style="html=1;points=[];perimeter=orthogonalPerimeter;rounded=0;shadow=0;comic=0;labelBackgroundColor=none;strokeWidth=1;fontFamily=Verdana;fontSize=12;align=center;" parent="7baba1c4bc27f4b0-2" vertex="1">
          <mxGeometry x="67.5" y="100" width="10" height="220" as="geometry" />
        </mxCell>
        <mxCell id="A7TIeduxvY1WPrKOtSjL-6" value="" style="edgeStyle=orthogonalEdgeStyle;rounded=0;orthogonalLoop=1;jettySize=auto;html=1;entryX=0.3;entryY=0.263;entryDx=0;entryDy=0;entryPerimeter=0;exitX=0.922;exitY=0.224;exitDx=0;exitDy=0;exitPerimeter=0;" edge="1" parent="7baba1c4bc27f4b0-2" source="7baba1c4bc27f4b0-10">
          <mxGeometry relative="1" as="geometry">
            <mxPoint x="80" y="150" as="sourcePoint" />
            <mxPoint x="245" y="151.01" as="targetPoint" />
            <Array as="points">
              <mxPoint x="77" y="151" />
            </Array>
          </mxGeometry>
        </mxCell>
        <mxCell id="A7TIeduxvY1WPrKOtSjL-10" value="AlmacenarDatos()" style="edgeLabel;html=1;align=center;verticalAlign=middle;resizable=0;points=[];" vertex="1" connectable="0" parent="A7TIeduxvY1WPrKOtSjL-6">
          <mxGeometry x="-0.1778" relative="1" as="geometry">
            <mxPoint x="23" y="-11" as="offset" />
          </mxGeometry>
        </mxCell>
        <mxCell id="7baba1c4bc27f4b0-8" value="Usuario" style="shape=umlLifeline;perimeter=lifelinePerimeter;whiteSpace=wrap;html=1;container=1;collapsible=0;recursiveResize=0;outlineConnect=0;rounded=1;shadow=0;comic=0;labelBackgroundColor=none;strokeWidth=1;fontFamily=Verdana;fontSize=12;align=center;" parent="1" vertex="1">
          <mxGeometry x="100" y="80" width="100" height="400" as="geometry" />
        </mxCell>
        <mxCell id="7baba1c4bc27f4b0-9" value="" style="html=1;points=[];perimeter=orthogonalPerimeter;rounded=0;shadow=0;comic=0;labelBackgroundColor=none;strokeWidth=1;fontFamily=Verdana;fontSize=12;align=center;" parent="7baba1c4bc27f4b0-8" vertex="1">
          <mxGeometry x="45" y="100" width="10" height="270" as="geometry" />
        </mxCell>
        <mxCell id="7baba1c4bc27f4b0-11" value="Registro()" style="html=1;verticalAlign=bottom;endArrow=block;entryX=0;entryY=0;labelBackgroundColor=none;fontFamily=Verdana;fontSize=12;edgeStyle=elbowEdgeStyle;elbow=vertical;" parent="1" source="7baba1c4bc27f4b0-9" target="7baba1c4bc27f4b0-10" edge="1">
          <mxGeometry relative="1" as="geometry">
            <mxPoint x="220" y="190" as="sourcePoint" />
            <mxPoint as="offset" />
          </mxGeometry>
        </mxCell>
        <mxCell id="A7TIeduxvY1WPrKOtSjL-3" style="edgeStyle=orthogonalEdgeStyle;rounded=0;orthogonalLoop=1;jettySize=auto;html=1;" edge="1" parent="1" source="7baba1c4bc27f4b0-10" target="7baba1c4bc27f4b0-8">
          <mxGeometry relative="1" as="geometry">
            <Array as="points">
              <mxPoint x="190" y="220" />
              <mxPoint x="190" y="220" />
            </Array>
          </mxGeometry>
        </mxCell>
        <mxCell id="A7TIeduxvY1WPrKOtSjL-4" value="MostrarOperacionExitosa()" style="text;html=1;align=center;verticalAlign=middle;resizable=0;points=[];autosize=1;strokeColor=none;fillColor=none;" vertex="1" parent="1">
          <mxGeometry x="160" y="270" width="170" height="30" as="geometry" />
        </mxCell>
        <mxCell id="A7TIeduxvY1WPrKOtSjL-8" value="BD" style="shape=umlLifeline;perimeter=lifelinePerimeter;whiteSpace=wrap;html=1;container=1;collapsible=0;recursiveResize=0;outlineConnect=0;rounded=1;shadow=0;comic=0;labelBackgroundColor=none;strokeWidth=1;fontFamily=Verdana;fontSize=12;align=center;" vertex="1" parent="1">
          <mxGeometry x="450" y="80" width="100" height="400" as="geometry" />
        </mxCell>
        <mxCell id="A7TIeduxvY1WPrKOtSjL-9" value="" style="html=1;points=[];perimeter=orthogonalPerimeter;rounded=0;shadow=0;comic=0;labelBackgroundColor=none;strokeWidth=1;fontFamily=Verdana;fontSize=12;align=center;" vertex="1" parent="A7TIeduxvY1WPrKOtSjL-8">
          <mxGeometry x="45" y="100" width="10" height="270" as="geometry" />
        </mxCell>
        <mxCell id="A7TIeduxvY1WPrKOtSjL-11" value="" style="endArrow=classic;html=1;rounded=0;entryX=1.112;entryY=0.378;entryDx=0;entryDy=0;entryPerimeter=0;exitX=-0.1;exitY=0.308;exitDx=0;exitDy=0;exitPerimeter=0;" edge="1" parent="1" source="A7TIeduxvY1WPrKOtSjL-9" target="7baba1c4bc27f4b0-10">
          <mxGeometry width="50" height="50" relative="1" as="geometry">
            <mxPoint x="440" y="310" as="sourcePoint" />
            <mxPoint x="490" y="260" as="targetPoint" />
          </mxGeometry>
        </mxCell>
        <mxCell id="A7TIeduxvY1WPrKOtSjL-12" value="OperacionExitosa()" style="text;html=1;align=center;verticalAlign=middle;resizable=0;points=[];autosize=1;strokeColor=none;fillColor=none;" vertex="1" parent="1">
          <mxGeometry x="345" y="240" width="130" height="30" as="geometry" />
        </mxCell>
      </root>
    </mxGraphModel>
  </diagram>
</mxfile>
